<svg xmlns="http://www.w3.org/2000/svg" viewBox="0 0 24 24" id="steam"><circle cx="15.5" cy="9.5" r="2.5" fill="#303c42"></circle><circle cx="15.5" cy="9.5" r="1.5" fill="#5c6671"></circle><path fill="#fff" d="M14.5 10c0-.827.673-1.5 1.5-1.5.285 0 .549.084.777.223A1.498 1.498 0 0 0 15.5 8c-.827 0-1.5.673-1.5 1.5 0 .542.292 1.013.723 1.277A1.486 1.486 0 0 1 14.5 10z" opacity=".2"></path><path fill="#303c42" d="M8.671 18.342a1.495 1.495 0 0 1-1.66-.217.501.501 0 0 0-.661.752c.47.411 1.057.624 1.65.624a2.504 2.504 0 0 0 2.236-3.619 2.498 2.498 0 0 0-1.905-1.359c-.275-.047-.525.155-.562.429s.156.525.429.562c.493.066.921.372 1.144.816a1.502 1.502 0 0 1-.671 2.012z"></path><path fill="#303c42" d="M12 0C5.383 0 0 5.383 0 12c0 .122.008.241.016.36l.011.174a.504.504 0 0 0 .292.433l4.844 2.202a.502.502 0 0 0 .584-.127A2.992 2.992 0 0 1 8 14c.217 0 .449.031.709.095a.495.495 0 0 0 .516-.182l2.727-3.565c.082-.106.104-.329.086-.462C12.02 9.759 12 9.632 12 9.5 12 7.57 13.57 6 15.5 6S19 7.57 19 9.5c0 1.928-1.567 3.497-3.526 3.497-.085-.015-.232.039-.323.114l-3.99 3.286a.497.497 0 0 0-.181.416c0 .013.018.174.02.187 0 1.654-1.346 3-3 3a2.976 2.976 0 0 1-2.953-2.549.498.498 0 0 0-.271-.372l-3.384-1.692a.5.5 0 0 0-.695.614C2.392 20.785 6.934 24 12 24c6.617 0 12-5.383 12-12S18.617 0 12 0z"></path><path fill="#5c6671" d="M12 23a11.013 11.013 0 0 1-9.843-6.113l1.95.976A3.966 3.966 0 0 0 8 21c2.205 0 4-1.794 4-3.999l3.647-3.003A4.506 4.506 0 0 0 20 9.5C20 7.019 17.981 5 15.5 5S11 7.019 11 9.5c0 .128.012.252.031.405l-2.409 3.15A3.777 3.777 0 0 0 8 13a3.98 3.98 0 0 0-2.747 1.112L1.006 12.18A2.66 2.66 0 0 1 1 12C1 5.935 5.935 1 12 1s11 4.935 11 11-4.935 11-11 11z"></path><path fill="#fff" d="M12.5 1.5c2.906 0 5.544 1.141 7.513 2.987C18.004 2.347 15.16 1 12 1 5.935 1 1 5.935 1 12c0 .061.002.121.006.181l.498.227C1.555 6.385 6.466 1.5 12.5 1.5z" opacity=".2"></path><linearGradient id="a" x1="8.927" x2="19.18" y1="13.884" y2="3.631" gradientTransform="matrix(1 0 0 -1 0 24)" gradientUnits="userSpaceOnUse"><stop offset="0" stop-opacity=".1"></stop><stop offset="1" stop-opacity="0"></stop></linearGradient><path fill="url(#a)" d="M12 23c6.065 0 11-4.935 11-11 0-.495-.044-.98-.108-1.458l-4.098-4.098-.007.004A4.47 4.47 0 0 1 20 9.5a4.506 4.506 0 0 1-4.353 4.498L12 17.001A4.004 4.004 0 0 1 8 21a3.966 3.966 0 0 1-3.893-3.138l-1.95-.976 4.913 4.913A10.903 10.903 0 0 0 12 23z"></path><linearGradient id="b" x1="1.126" x2="22.876" y1="17.074" y2="6.932" gradientTransform="matrix(1 0 0 -1 0 24)" gradientUnits="userSpaceOnUse"><stop offset="0" stop-color="#fff" stop-opacity=".2"></stop><stop offset="1" stop-color="#fff" stop-opacity="0"></stop></linearGradient><path fill="url(#b)" d="M18 9.5C18 8.121 16.878 7 15.5 7S13 8.121 13 9.5s1.122 2.5 2.5 2.5S18 10.879 18 9.5zM12 0C5.383 0 0 5.383 0 12c0 .122.008.241.016.36l.011.174a.504.504 0 0 0 .292.433l4.844 2.202a.502.502 0 0 0 .584-.127A2.992 2.992 0 0 1 8 14c.217 0 .449.031.709.095a.495.495 0 0 0 .516-.182l2.727-3.565c.082-.106.104-.329.086-.462C12.02 9.759 12 9.632 12 9.5 12 7.57 13.57 6 15.5 6S19 7.57 19 9.5c0 1.928-1.567 3.497-3.526 3.497-.085-.015-.232.039-.323.114l-3.99 3.286a.497.497 0 0 0-.181.416c0 .013.018.174.02.187 0 1.654-1.346 3-3 3a2.976 2.976 0 0 1-2.953-2.549.498.498 0 0 0-.271-.372l-3.384-1.692a.5.5 0 0 0-.695.614C2.392 20.785 6.934 24 12 24c6.617 0 12-5.383 12-12S18.617 0 12 0zM8.671 18.342a1.495 1.495 0 0 1-1.66-.217.501.501 0 0 0-.661.752c.47.411 1.057.624 1.65.624a2.504 2.504 0 0 0 2.236-3.619 2.498 2.498 0 0 0-1.905-1.359c-.275-.047-.525.155-.562.429s.156.525.429.562c.493.066.921.372 1.144.816a1.502 1.502 0 0 1-.671 2.012z"></path></svg>